G04 Layer_Color=0*
%FSLAX24Y24*%
%MOIN*%
%TF.FileFunction,Plated,1,2,PTH,Drill*%
%TF.Part,Single*%
G01*
G75*
%TA.AperFunction,ComponentDrill*%
%ADD46C,0.0551*%
%ADD47C,0.0354*%
D46*
X16142Y15976D02*
D03*
Y44409D02*
D03*
D47*
X27953Y15535D02*
D03*
Y16535D02*
D03*
Y17535D02*
D03*
Y18535D02*
D03*
Y19535D02*
D03*
Y20535D02*
D03*
Y21535D02*
D03*
Y22535D02*
D03*
Y23535D02*
D03*
Y24535D02*
D03*
Y25535D02*
D03*
Y26535D02*
D03*
Y27535D02*
D03*
Y28535D02*
D03*
Y29535D02*
D03*
Y30535D02*
D03*
Y31535D02*
D03*
Y32535D02*
D03*
Y33535D02*
D03*
Y34535D02*
D03*
X34953Y27535D02*
D03*
Y26535D02*
D03*
Y25535D02*
D03*
Y24535D02*
D03*
Y23535D02*
D03*
Y22535D02*
D03*
Y21535D02*
D03*
Y20535D02*
D03*
Y19535D02*
D03*
Y18535D02*
D03*
Y17535D02*
D03*
Y16535D02*
D03*
Y15535D02*
D03*
Y28535D02*
D03*
Y29535D02*
D03*
Y30535D02*
D03*
Y31535D02*
D03*
Y32535D02*
D03*
Y33535D02*
D03*
Y34535D02*
D03*
%TF.MD5,18707a404fd8c19aa52491ec2aca73ac*%
M02*
