M48
;Layer_Color=9474304
;FILE_FORMAT=2:4
INCH
;TYPE=PLATED
T1F00S00C0.0354
T2F00S00C0.0551
;TYPE=NON_PLATED
T3F00S00C0.0941
T4F00S00C0.1398
%
T01
X027953Y015535
X034953
Y016535
Y017535
Y018535
Y019535
Y020535
Y021535
Y022535
Y023535
Y024535
Y025535
Y026535
Y027535
Y028535
Y029535
Y030535
X027953
Y029535
Y028535
Y027535
Y026535
Y025535
Y024535
Y023535
Y022535
Y021535
Y020535
Y019535
Y018535
Y017535
Y016535
Y031535
Y032535
Y033535
Y034535
X034953
Y033535
Y032535
Y031535
T02
X016142Y015976
Y044409
T03
X012992Y015976
T04
X011811Y012992
X035433
X019291Y019213
X012992Y040945
X011811Y046850
X035433
M30
