G04 Layer_Color=65535*
%FSLAX24Y24*%
%MOIN*%
%TF.FileFunction,Legend,Top*%
%TF.Part,Single*%
G01*
G75*
%TA.AperFunction,NonConductor*%
%ADD23C,0.0098*%
%TA.AperFunction,OtherPad,Pad U2-3 (3043.307mil,4417.323mil)*%
%ADD24C,0.0315*%
%TA.AperFunction,OtherPad,Free Pad (2895.276mil,3353.543mil)*%
%ADD25C,0.0472*%
%TA.AperFunction,NonConductor*%
%ADD26C,0.0079*%
%ADD27C,0.0050*%
%ADD28C,0.0100*%
D23*
X22697Y17254D02*
G03*
X22697Y17254I-49J0D01*
G01*
X24734Y22628D02*
G03*
X24734Y22628I-49J0D01*
G01*
D24*
X30433Y44173D02*
D03*
D25*
X28953Y33535D02*
D03*
D26*
X23051Y15925D02*
X23406D01*
Y17146D01*
X23051D01*
Y15925D01*
X25079Y21319D02*
X25472D01*
Y21624D01*
Y22195D02*
Y22500D01*
X25079D01*
D27*
X21404Y16481D02*
Y16631D01*
X21904D02*
Y16481D01*
X24553Y16461D02*
Y16611D01*
X25053D02*
Y16461D01*
X28953Y15285D02*
X33953D01*
X27022Y21833D02*
Y21983D01*
X26522D02*
Y21833D01*
X26427Y20240D02*
Y20083D01*
X25935D02*
Y20240D01*
X25443Y20240D02*
Y20083D01*
X24951D02*
Y20240D01*
X23872Y21835D02*
Y21985D01*
X23372D02*
Y21835D01*
X33953Y34785D02*
X28953D01*
X32618Y39124D02*
X32776D01*
Y39616D02*
X32618D01*
Y40699D02*
X32776D01*
Y41191D02*
X32618D01*
X31552Y42376D02*
X31402D01*
X31654Y42677D02*
X30551D01*
X31402Y41876D02*
X31552D01*
X31654Y43937D02*
X30551D01*
D28*
X16142Y18701D02*
Y19750D01*
X16667Y19226D02*
X15617D01*
X23425Y24114D02*
X23524Y24016D01*
X23917D01*
X24016Y24114D01*
Y24311D01*
X23917Y24409D01*
X23524D01*
X23425Y24311D01*
Y24114D01*
Y24606D02*
X24016Y25000D01*
X23425D01*
Y24606D02*
X24016D01*
X29553Y26005D02*
X30078D01*
X30471D02*
X30340Y26136D01*
X30471Y26005D02*
X30733D01*
X30865Y26136D01*
Y26267D01*
X30733Y26398D01*
X30471D01*
X30340Y26529D01*
Y26661D01*
X30471Y26792D01*
X30733D01*
X30865Y26661D01*
X30078Y26792D02*
X29553D01*
Y26005D01*
Y26398D02*
X29815D01*
X30012Y25607D02*
X30405D01*
X30537Y25476D01*
Y25214D01*
X30405Y25082D01*
X30012D01*
Y25607D02*
Y24820D01*
X30799D02*
X31061D01*
X31455Y24951D02*
X31586Y24820D01*
X31849D01*
X31980Y24951D01*
X32242D02*
X32373Y24820D01*
X32636D01*
X32767Y24951D01*
Y25476D01*
X32636Y25607D01*
X32373D01*
X32242Y25476D01*
Y24951D01*
X32373Y24423D02*
X32111D01*
Y23635D01*
X32373Y24423D02*
X31849D01*
X31455D02*
X31324D01*
Y23635D01*
X31193D01*
X31455D01*
Y24423D02*
X31193D01*
X31455Y24951D02*
Y25476D01*
X31586Y25607D01*
X31849D01*
X31980Y25476D01*
X33226Y26005D02*
X32701D01*
X33226Y26529D01*
Y26661D01*
X33095Y26792D01*
X32833D01*
X32701Y26661D01*
X32439D02*
Y26529D01*
X32308Y26398D01*
X32177D01*
X32308D01*
X32439Y26267D01*
Y26136D01*
X32308Y26005D01*
X32045D01*
X31914Y26136D01*
X31521Y26267D02*
X31127D01*
Y26005D02*
Y26792D01*
X31521D01*
X31652Y26661D01*
Y26398D01*
X31521Y26267D01*
X31914Y26661D02*
X32045Y26792D01*
X32308D01*
X32439Y26661D01*
X31061Y25607D02*
X30930D01*
Y24820D01*
X30799D01*
X30930Y24423D02*
X30537Y24029D01*
X30930Y23635D01*
X30405D02*
Y23898D01*
X30930Y24423D01*
X30405D02*
Y23635D01*
X31061Y25607D02*
X30799D01*
X24016Y30511D02*
X23721D01*
Y30708D01*
Y30511D01*
X23425D01*
Y30905D01*
Y30315D02*
Y29921D01*
X23721D01*
Y30118D01*
Y29921D01*
X24016D01*
Y29626D02*
X23917Y29724D01*
X23524D01*
X23425Y29626D01*
Y29429D01*
X23524Y29331D01*
X23917D01*
X24016Y29429D01*
Y29626D01*
X22441Y31693D02*
Y32480D01*
X22047Y32086D02*
X22834D01*
X22390Y33941D02*
X22292Y33843D01*
X22390Y33941D02*
Y34138D01*
X22292Y34236D01*
X22193D01*
X22095Y34138D01*
Y34040D01*
Y34138D01*
X21997Y34236D01*
X21898D01*
X21800Y34138D01*
Y33941D01*
X21898Y33843D01*
X22292Y34433D02*
Y34532D01*
X22390D01*
Y34433D01*
X22292D01*
Y34925D02*
X22390D01*
X22292D02*
X21898Y35319D01*
X21800D01*
Y34925D01*
X22390Y36106D02*
Y36499D01*
Y36696D02*
Y36893D01*
Y36795D01*
X21997D01*
Y36696D01*
X22390Y36106D02*
X21800D01*
X22095Y37188D02*
Y37582D01*
X22390Y37779D02*
Y37975D01*
Y38369D02*
Y38566D01*
X22292Y38664D01*
X22095D01*
X21997Y38566D01*
Y38369D01*
X22095Y38270D01*
X22292D01*
X22390Y38369D01*
Y38861D02*
X21997D01*
Y39156D01*
X22095Y39254D01*
X22390D01*
X22945Y39058D02*
Y38959D01*
X22390Y37877D02*
Y37779D01*
Y37877D02*
X21800D01*
Y37975D01*
Y37779D01*
X23142Y37877D02*
X23240Y37779D01*
X23437D01*
X23535Y37877D01*
Y38074D01*
X23437Y38172D01*
X23240D01*
X23142Y38074D01*
Y37877D01*
Y38369D02*
Y38664D01*
X23240Y38762D01*
X23535D01*
Y38959D02*
Y39156D01*
Y39058D01*
X22945D01*
X23142Y38369D02*
X23535D01*
X23437Y39451D02*
X23535Y39550D01*
Y39845D01*
X23634D01*
X23732Y39746D01*
Y39648D01*
X23535Y39845D02*
X23142D01*
Y39451D02*
X23437D01*
X22390Y40042D02*
Y40337D01*
X22292Y40435D01*
X22193D01*
X22095Y40337D01*
Y40042D01*
Y40337D01*
X21997Y40435D01*
X21898D01*
X21800Y40337D01*
Y40042D01*
X22390D01*
Y40730D02*
X22292Y40632D01*
X22193Y40730D01*
Y41026D01*
X22095D02*
X22390D01*
Y40730D01*
X21997D02*
Y40927D01*
X22095Y41026D01*
X21997Y41222D02*
Y41419D01*
Y41321D01*
Y41222D01*
Y41321D02*
X22292D01*
X22390Y41419D01*
X22292Y41813D02*
X22390Y41911D01*
X22292Y41813D02*
X21997D01*
Y41714D01*
Y41911D01*
Y41813D01*
X21898D01*
Y41321D02*
X21997D01*
X22095Y42206D02*
X21997Y42305D01*
Y42501D01*
X22095Y42600D01*
X22193D01*
Y42206D01*
X22095D02*
X22292D01*
X22390Y42305D01*
Y42501D01*
Y42797D02*
X22193D01*
X22095Y42895D01*
X21997Y42993D01*
Y43092D01*
Y43387D02*
X22292D01*
X22390Y43485D01*
Y43781D01*
X22489D01*
X22587Y43682D01*
Y43584D01*
X22390Y43781D02*
X21997D01*
Y42797D02*
X22390D01*
X22441Y45276D02*
Y46063D01*
X26569Y42914D02*
X26635Y42980D01*
X26831D01*
Y43111D02*
Y43242D01*
Y43177D01*
X26569D01*
Y43111D01*
X26635Y43439D02*
X26569Y43505D01*
Y43701D01*
X26438D02*
X26831D01*
Y43505D01*
X26766Y43439D01*
X26635D01*
X26569Y43833D02*
Y43898D01*
X26831D01*
Y43964D01*
Y43833D01*
Y42849D02*
X26635D01*
X26831D01*
Y42718D02*
X26569D01*
Y42783D01*
X26635Y42849D01*
X26569Y42914D01*
Y42586D02*
X26831D01*
Y42390D01*
X26766Y42324D01*
X26569D01*
X26635Y42193D02*
X26438D01*
X26831D01*
X26635D02*
Y41930D01*
X26831D01*
X26438D01*
X27413Y41865D02*
X27478Y41930D01*
X27544D01*
Y41668D01*
X27609D02*
X27478D01*
X27413Y41734D01*
Y41865D01*
X27675D02*
Y41734D01*
X27609Y41668D01*
X27675Y41406D02*
X27281D01*
Y41537D01*
Y41274D01*
X28125Y42324D02*
X28190Y42258D01*
X28256D01*
X28322Y42324D01*
Y42455D01*
X28387Y42521D01*
X28453D01*
X28518Y42455D01*
Y42324D01*
X28453Y42258D01*
Y42652D02*
X28322D01*
X28256Y42718D01*
Y42849D01*
X28322Y42914D01*
X28387D01*
Y42652D01*
X28453D02*
X28518Y42718D01*
Y42849D01*
X28837Y42881D02*
X28903Y42816D01*
X29165D01*
X29231Y42881D01*
Y43013D01*
X29165Y43078D01*
Y43209D02*
X29100D01*
X29034Y43275D01*
X28968Y43209D01*
X28903D01*
X28837Y43275D01*
Y43406D01*
X28903Y43472D01*
X28968D01*
X29034Y43406D01*
X29100Y43472D01*
X29165D01*
X29231Y43406D01*
Y43275D01*
X29165Y43209D01*
X29034Y43275D02*
Y43406D01*
X29165Y43603D02*
X28903D01*
X28837Y43669D01*
Y43800D01*
X28903Y43865D01*
X29165D01*
X29231Y43800D01*
Y43669D01*
X29165Y43603D01*
Y42685D02*
X28903D01*
X28837Y42619D01*
Y42422D01*
X29231D01*
Y42619D01*
X29165Y42685D01*
X29231Y42291D02*
X28837D01*
X29034D01*
Y42029D01*
X29231D01*
X28837D01*
Y42881D02*
Y43013D01*
X28903Y43078D01*
X28518Y43045D02*
X28256D01*
Y43242D01*
X28322Y43308D01*
X28518D01*
Y43439D02*
Y43636D01*
X28453Y43701D01*
X28387Y43636D01*
Y43505D01*
X28322Y43439D01*
X28256Y43505D01*
Y43701D01*
X28322Y43833D02*
X28453D01*
X28518Y43898D01*
Y44029D01*
X28453Y44095D01*
X28322D01*
X28256Y44029D01*
Y43898D01*
X28322Y43833D01*
X28190Y42521D02*
X28125Y42455D01*
Y42324D01*
X27675Y43045D02*
Y42914D01*
X27609Y42849D01*
X27478D01*
X27413Y42914D01*
Y43045D01*
X27478Y43111D01*
X27544D01*
Y42849D01*
X27609Y42718D02*
X27675Y42652D01*
Y42455D01*
X27806D02*
X27413D01*
Y42652D01*
X27478Y42718D01*
X27609D01*
X27675Y42324D02*
X27478D01*
X27413Y42258D01*
X27478Y42193D01*
X27675D01*
X27478D01*
X27413Y42127D01*
Y42062D01*
X27675D01*
Y43242D02*
X27544D01*
X27478Y43308D01*
X27413Y43373D01*
Y43439D01*
Y43242D02*
X27675D01*
Y43701D02*
X27609Y43636D01*
X27544Y43701D01*
Y43898D01*
X27478D02*
X27675D01*
Y43701D01*
X27413D02*
Y43833D01*
X27478Y43898D01*
X28256Y44226D02*
X28518D01*
X28387D01*
X28322Y44292D01*
X28256Y44357D01*
Y44423D01*
X28837Y44456D02*
Y44587D01*
X28903Y44653D01*
X29165D01*
X29231Y44587D01*
Y44456D01*
X29165Y44390D01*
X28903D01*
X28837Y44456D01*
Y44193D02*
Y44062D01*
X28903Y43997D01*
Y44259D02*
X28837Y44193D01*
X28903Y44259D02*
X28968D01*
X29231Y43997D01*
Y44259D01*
X27675Y45210D02*
X27609Y45145D01*
X27478D01*
X27413Y45210D01*
Y45341D01*
X27478Y45407D01*
X27544D01*
Y45145D01*
X27675Y45210D02*
Y45341D01*
Y44751D02*
X27544D01*
X27478Y44817D01*
X27413Y44882D01*
Y44948D01*
Y44751D02*
X27675D01*
Y44620D02*
X27413D01*
Y44357D02*
X27609D01*
X27675Y44423D01*
Y44620D01*
Y44161D02*
X27609Y44095D01*
X27413D01*
Y44029D01*
Y44161D01*
Y44095D01*
X27347D01*
X26831Y44292D02*
X26766Y44226D01*
X26569D01*
Y44161D01*
Y44292D01*
Y44226D01*
X26503D01*
X26569Y44489D02*
X26766D01*
X26831Y44554D01*
Y44751D01*
X26897D01*
X26963Y44685D01*
Y44620D01*
X26831Y44751D02*
X26569D01*
X35761Y41732D02*
X35958D01*
X36024Y41798D01*
Y41995D01*
X36089D01*
X36155Y41929D01*
Y41863D01*
X36024Y41535D02*
X35958Y41601D01*
X35892D01*
X35827D01*
X35761Y41535D01*
Y41339D01*
X35630D02*
X36024D01*
Y41535D01*
Y41995D02*
X35761D01*
X35827Y42519D02*
Y42650D01*
Y42585D01*
Y42519D01*
Y42585D02*
X35696D01*
X35827D01*
X35696D02*
X35630Y42650D01*
X35696Y42585D02*
X36024D01*
Y42847D02*
X35892D01*
X35827Y42913D01*
X35761Y42978D01*
Y43044D01*
Y43306D02*
Y43438D01*
X35827Y43503D01*
X36024D01*
Y43306D01*
X35958Y43241D01*
X35892Y43306D01*
Y43503D01*
X35761Y43634D02*
X36024Y43897D01*
X35892Y43766D01*
X35761Y43897D01*
X36024Y43634D01*
Y42847D02*
X35761D01*
X36024Y44094D02*
X35958Y44028D01*
X35892D01*
X35827Y44094D01*
X35761Y44028D01*
X35696D01*
X35630Y44094D01*
Y44225D01*
X35696Y44290D01*
X35761D01*
X35827Y44225D01*
X35892Y44290D01*
X35958D01*
X36024Y44225D01*
Y44094D01*
Y44618D02*
X35630D01*
X35827Y44422D01*
Y44684D01*
Y44225D02*
Y44094D01*
X16142Y41404D02*
Y40354D01*
%TF.MD5,f97ee6ce842a0f3f5fa3a9c9a4ced3c1*%
M02*
