G04 Layer_Color=16711935*
%FSLAX24Y24*%
%MOIN*%
%TF.FileFunction,Soldermask,Bot*%
%TF.Part,Single*%
G01*
G75*
%TA.AperFunction,ComponentPad*%
%ADD19C,0.0941*%
%ADD20C,0.1398*%
%TA.AperFunction,WasherPad*%
%ADD22C,0.1398*%
%TA.AperFunction,ComponentPad*%
%ADD37C,0.0764*%
%ADD38C,0.0528*%
D19*
X12992Y15976D02*
D03*
D20*
X19291Y19213D02*
D03*
X12992Y40945D02*
D03*
D22*
X11811Y12992D02*
D03*
X35433D02*
D03*
Y46850D02*
D03*
X11811D02*
D03*
D37*
X16142Y15976D02*
D03*
Y44409D02*
D03*
D38*
X27953Y15535D02*
D03*
Y16535D02*
D03*
Y17535D02*
D03*
Y18535D02*
D03*
Y19535D02*
D03*
Y20535D02*
D03*
Y21535D02*
D03*
Y22535D02*
D03*
Y23535D02*
D03*
Y24535D02*
D03*
Y25535D02*
D03*
Y26535D02*
D03*
Y27535D02*
D03*
Y28535D02*
D03*
Y29535D02*
D03*
Y30535D02*
D03*
Y31535D02*
D03*
Y32535D02*
D03*
Y33535D02*
D03*
Y34535D02*
D03*
X34953Y27535D02*
D03*
Y26535D02*
D03*
Y25535D02*
D03*
Y24535D02*
D03*
Y23535D02*
D03*
Y22535D02*
D03*
Y21535D02*
D03*
Y20535D02*
D03*
Y19535D02*
D03*
Y18535D02*
D03*
Y17535D02*
D03*
Y16535D02*
D03*
Y15535D02*
D03*
Y28535D02*
D03*
Y29535D02*
D03*
Y30535D02*
D03*
Y31535D02*
D03*
Y32535D02*
D03*
Y33535D02*
D03*
Y34535D02*
D03*
%TF.MD5,dcae9aabd4a04319adda0d7d58f4c2b8*%
M02*
