G04 Layer_Physical_Order=1*
G04 Layer_Color=255*
%FSLAX24Y24*%
%MOIN*%
%TF.FileFunction,Copper,L1,Top,Signal*%
%TF.Part,Single*%
G01*
G75*
%TA.AperFunction,SMDPad,CuDef*%
%ADD10R,0.0492X0.0256*%
G04:AMPARAMS|DCode=11|XSize=59.1mil|YSize=94.5mil|CornerRadius=5.9mil|HoleSize=0mil|Usage=FLASHONLY|Rotation=0.000|XOffset=0mil|YOffset=0mil|HoleType=Round|Shape=RoundedRectangle|*
%AMROUNDEDRECTD11*
21,1,0.0591,0.0827,0,0,0.0*
21,1,0.0472,0.0945,0,0,0.0*
1,1,0.0118,0.0236,-0.0413*
1,1,0.0118,-0.0236,-0.0413*
1,1,0.0118,-0.0236,0.0413*
1,1,0.0118,0.0236,0.0413*
%
%ADD11ROUNDEDRECTD11*%
G04:AMPARAMS|DCode=12|XSize=23.6mil|YSize=17.7mil|CornerRadius=1.8mil|HoleSize=0mil|Usage=FLASHONLY|Rotation=0.000|XOffset=0mil|YOffset=0mil|HoleType=Round|Shape=RoundedRectangle|*
%AMROUNDEDRECTD12*
21,1,0.0236,0.0142,0,0,0.0*
21,1,0.0201,0.0177,0,0,0.0*
1,1,0.0035,0.0100,-0.0071*
1,1,0.0035,-0.0100,-0.0071*
1,1,0.0035,-0.0100,0.0071*
1,1,0.0035,0.0100,0.0071*
%
%ADD12ROUNDEDRECTD12*%
%ADD13R,0.0984X0.0472*%
%ADD14R,0.0512X0.0276*%
%ADD15R,0.0276X0.0512*%
%ADD16R,0.0472X0.0256*%
%TA.AperFunction,Conductor*%
%ADD17C,0.0100*%
%TA.AperFunction,ComponentPad*%
%ADD18C,0.0709*%
%ADD19C,0.0941*%
%ADD20C,0.1398*%
%ADD21C,0.0472*%
%TA.AperFunction,WasherPad*%
%ADD22C,0.1398*%
G36*
X35433Y45276D02*
X35433D01*
Y14764D01*
X33465Y12795D01*
X13780D01*
X11811Y14764D01*
Y45276D01*
X13780Y47244D01*
X33465D01*
X35433Y45276D01*
D02*
G37*
%LPC*%
G36*
X26131Y19737D02*
X25825D01*
Y19550D01*
X26131D01*
Y19737D01*
D02*
G37*
G36*
X34953Y19875D02*
X34865Y19863D01*
X34783Y19829D01*
X34713Y19775D01*
X34659Y19705D01*
X34625Y19623D01*
X34614Y19535D01*
X34625Y19448D01*
X34659Y19366D01*
X34713Y19296D01*
X34783Y19242D01*
X34865Y19208D01*
X34953Y19196D01*
X35041Y19208D01*
X35122Y19242D01*
X35193Y19296D01*
X35246Y19366D01*
X35280Y19448D01*
X35292Y19535D01*
X35280Y19623D01*
X35246Y19705D01*
X35193Y19775D01*
X35122Y19829D01*
X35041Y19863D01*
X34953Y19875D01*
D02*
G37*
G36*
X26537Y19737D02*
X26231D01*
Y19550D01*
X26537D01*
Y19737D01*
D02*
G37*
G36*
Y20025D02*
X26231D01*
Y19837D01*
X26537D01*
Y20025D01*
D02*
G37*
G36*
X26131D02*
X25825D01*
Y19837D01*
X26131D01*
Y20025D01*
D02*
G37*
G36*
X27953Y18875D02*
X27865Y18863D01*
X27783Y18829D01*
X27713Y18775D01*
X27659Y18705D01*
X27625Y18623D01*
X27614Y18535D01*
X27625Y18448D01*
X27659Y18366D01*
X27713Y18296D01*
X27783Y18242D01*
X27865Y18208D01*
X27953Y18196D01*
X28041Y18208D01*
X28122Y18242D01*
X28193Y18296D01*
X28246Y18366D01*
X28280Y18448D01*
X28292Y18535D01*
X28280Y18623D01*
X28246Y18705D01*
X28193Y18775D01*
X28122Y18829D01*
X28041Y18863D01*
X27953Y18875D01*
D02*
G37*
G36*
Y17875D02*
X27865Y17863D01*
X27783Y17829D01*
X27713Y17775D01*
X27659Y17705D01*
X27625Y17623D01*
X27614Y17535D01*
X27625Y17448D01*
X27659Y17366D01*
X27713Y17296D01*
X27783Y17242D01*
X27865Y17208D01*
X27953Y17196D01*
X28041Y17208D01*
X28122Y17242D01*
X28193Y17296D01*
X28246Y17366D01*
X28280Y17448D01*
X28292Y17535D01*
X28280Y17623D01*
X28246Y17705D01*
X28193Y17775D01*
X28122Y17829D01*
X28041Y17863D01*
X27953Y17875D01*
D02*
G37*
G36*
X34953Y18875D02*
X34865Y18863D01*
X34783Y18829D01*
X34713Y18775D01*
X34659Y18705D01*
X34625Y18623D01*
X34614Y18535D01*
X34625Y18448D01*
X34659Y18366D01*
X34713Y18296D01*
X34783Y18242D01*
X34865Y18208D01*
X34953Y18196D01*
X35041Y18208D01*
X35122Y18242D01*
X35193Y18296D01*
X35246Y18366D01*
X35280Y18448D01*
X35292Y18535D01*
X35280Y18623D01*
X35246Y18705D01*
X35193Y18775D01*
X35122Y18829D01*
X35041Y18863D01*
X34953Y18875D01*
D02*
G37*
G36*
X27953Y19875D02*
X27865Y19863D01*
X27783Y19829D01*
X27713Y19775D01*
X27659Y19705D01*
X27625Y19623D01*
X27614Y19535D01*
X27625Y19448D01*
X27659Y19366D01*
X27713Y19296D01*
X27783Y19242D01*
X27865Y19208D01*
X27953Y19196D01*
X28041Y19208D01*
X28122Y19242D01*
X28193Y19296D01*
X28246Y19366D01*
X28280Y19448D01*
X28292Y19535D01*
X28280Y19623D01*
X28246Y19705D01*
X28193Y19775D01*
X28122Y19829D01*
X28041Y19863D01*
X27953Y19875D01*
D02*
G37*
G36*
X19291Y20015D02*
X19135Y20000D01*
X18984Y19954D01*
X18845Y19880D01*
X18724Y19780D01*
X18624Y19659D01*
X18550Y19520D01*
X18504Y19369D01*
X18489Y19213D01*
X18504Y19056D01*
X18550Y18905D01*
X18624Y18767D01*
X18724Y18645D01*
X18845Y18545D01*
X18984Y18471D01*
X19135Y18425D01*
X19291Y18410D01*
X19448Y18425D01*
X19599Y18471D01*
X19737Y18545D01*
X19859Y18645D01*
X19959Y18767D01*
X20033Y18905D01*
X20079Y19056D01*
X20094Y19213D01*
X20079Y19369D01*
X20033Y19520D01*
X19959Y19659D01*
X19859Y19780D01*
X19737Y19880D01*
X19599Y19954D01*
X19448Y20000D01*
X19291Y20015D01*
D02*
G37*
G36*
X23978Y21773D02*
X23672D01*
Y21585D01*
X23978D01*
Y21773D01*
D02*
G37*
G36*
X23572D02*
X23266D01*
Y21585D01*
X23572D01*
Y21773D01*
D02*
G37*
G36*
X27953Y21875D02*
X27865Y21863D01*
X27783Y21829D01*
X27713Y21775D01*
X27659Y21705D01*
X27652Y21688D01*
X27128D01*
Y21773D01*
X26416D01*
Y21688D01*
X26045D01*
Y21859D01*
X25709D01*
X25372D01*
Y21688D01*
X25021D01*
Y21763D01*
X24349D01*
Y21307D01*
X25021D01*
Y21382D01*
X26416D01*
Y21298D01*
X27128D01*
Y21382D01*
X27652D01*
X27659Y21366D01*
X27713Y21296D01*
X27783Y21242D01*
X27865Y21208D01*
X27953Y21196D01*
X28041Y21208D01*
X28122Y21242D01*
X28193Y21296D01*
X28246Y21366D01*
X28280Y21448D01*
X28292Y21535D01*
X28280Y21623D01*
X28246Y21705D01*
X28193Y21775D01*
X28122Y21829D01*
X28041Y21863D01*
X27953Y21875D01*
D02*
G37*
G36*
X26045Y22137D02*
X25759D01*
Y21959D01*
X26045D01*
Y22137D01*
D02*
G37*
G36*
X25659D02*
X25372D01*
Y21959D01*
X25659D01*
Y22137D01*
D02*
G37*
G36*
X27953Y20875D02*
X27865Y20863D01*
X27783Y20829D01*
X27713Y20775D01*
X27659Y20705D01*
X27652Y20688D01*
X26537D01*
Y20773D01*
X25825D01*
Y20688D01*
X25553D01*
Y20773D01*
X24841D01*
Y20298D01*
X25553D01*
Y20382D01*
X25825D01*
Y20298D01*
X26537D01*
Y20382D01*
X27652D01*
X27659Y20366D01*
X27713Y20296D01*
X27783Y20242D01*
X27865Y20208D01*
X27953Y20196D01*
X28041Y20208D01*
X28122Y20242D01*
X28193Y20296D01*
X28246Y20366D01*
X28280Y20448D01*
X28292Y20535D01*
X28280Y20623D01*
X28246Y20705D01*
X28193Y20775D01*
X28122Y20829D01*
X28041Y20863D01*
X27953Y20875D01*
D02*
G37*
G36*
X34953D02*
X34865Y20863D01*
X34783Y20829D01*
X34713Y20775D01*
X34659Y20705D01*
X34625Y20623D01*
X34614Y20535D01*
X34625Y20448D01*
X34659Y20366D01*
X34713Y20296D01*
X34783Y20242D01*
X34865Y20208D01*
X34953Y20196D01*
X35041Y20208D01*
X35122Y20242D01*
X35193Y20296D01*
X35246Y20366D01*
X35280Y20448D01*
X35292Y20535D01*
X35280Y20623D01*
X35246Y20705D01*
X35193Y20775D01*
X35122Y20829D01*
X35041Y20863D01*
X34953Y20875D01*
D02*
G37*
G36*
Y21875D02*
X34865Y21863D01*
X34783Y21829D01*
X34713Y21775D01*
X34659Y21705D01*
X34625Y21623D01*
X34614Y21535D01*
X34625Y21448D01*
X34659Y21366D01*
X34713Y21296D01*
X34783Y21242D01*
X34865Y21208D01*
X34953Y21196D01*
X35041Y21208D01*
X35122Y21242D01*
X35193Y21296D01*
X35246Y21366D01*
X35280Y21448D01*
X35292Y21535D01*
X35280Y21623D01*
X35246Y21705D01*
X35193Y21775D01*
X35122Y21829D01*
X35041Y21863D01*
X34953Y21875D01*
D02*
G37*
G36*
X23978Y21485D02*
X23672D01*
Y21298D01*
X23978D01*
Y21485D01*
D02*
G37*
G36*
X23572D02*
X23266D01*
Y21298D01*
X23572D01*
Y21485D01*
D02*
G37*
G36*
X22009Y16131D02*
X21704D01*
Y15943D01*
X22009D01*
Y16131D01*
D02*
G37*
G36*
X21604D02*
X21298D01*
Y15943D01*
X21604D01*
Y16131D01*
D02*
G37*
G36*
X27903Y16485D02*
X27620D01*
X27625Y16448D01*
X27659Y16366D01*
X27713Y16296D01*
X27783Y16242D01*
X27865Y16208D01*
X27903Y16203D01*
Y16485D01*
D02*
G37*
G36*
X34903D02*
X34620D01*
X34625Y16448D01*
X34659Y16366D01*
X34713Y16296D01*
X34783Y16242D01*
X34865Y16208D01*
X34903Y16203D01*
Y16485D01*
D02*
G37*
G36*
X28285D02*
X28003D01*
Y16203D01*
X28041Y16208D01*
X28122Y16242D01*
X28193Y16296D01*
X28246Y16366D01*
X28280Y16448D01*
X28285Y16485D01*
D02*
G37*
G36*
X12992Y16552D02*
X12843Y16532D01*
X12704Y16475D01*
X12585Y16383D01*
X12494Y16264D01*
X12436Y16125D01*
X12417Y15976D01*
X12436Y15827D01*
X12494Y15689D01*
X12585Y15570D01*
X12704Y15478D01*
X12843Y15421D01*
X12992Y15401D01*
X13141Y15421D01*
X13280Y15478D01*
X13399Y15570D01*
X13490Y15689D01*
X13548Y15827D01*
X13568Y15976D01*
X13548Y16125D01*
X13490Y16264D01*
X13399Y16383D01*
X13280Y16475D01*
X13141Y16532D01*
X12992Y16552D01*
D02*
G37*
G36*
X34953Y15875D02*
X34865Y15863D01*
X34783Y15829D01*
X34713Y15775D01*
X34659Y15705D01*
X34625Y15623D01*
X34614Y15535D01*
X34625Y15448D01*
X34659Y15366D01*
X34713Y15296D01*
X34783Y15242D01*
X34865Y15208D01*
X34953Y15196D01*
X35041Y15208D01*
X35122Y15242D01*
X35193Y15296D01*
X35246Y15366D01*
X35280Y15448D01*
X35292Y15535D01*
X35280Y15623D01*
X35246Y15705D01*
X35193Y15775D01*
X35122Y15829D01*
X35041Y15863D01*
X34953Y15875D01*
D02*
G37*
G36*
X24753Y16111D02*
X24447D01*
Y15924D01*
X24753D01*
Y16111D01*
D02*
G37*
G36*
X24155Y16389D02*
X23463D01*
Y15933D01*
X24155D01*
Y16389D01*
D02*
G37*
G36*
X25159Y16111D02*
X24853D01*
Y15924D01*
X25159D01*
Y16111D01*
D02*
G37*
G36*
X28003Y16868D02*
Y16585D01*
X28285D01*
X28280Y16623D01*
X28246Y16705D01*
X28193Y16775D01*
X28122Y16829D01*
X28041Y16863D01*
X28003Y16868D01*
D02*
G37*
G36*
X27903D02*
X27865Y16863D01*
X27783Y16829D01*
X27713Y16775D01*
X27659Y16705D01*
X27625Y16623D01*
X27620Y16585D01*
X27903D01*
Y16868D01*
D02*
G37*
G36*
X34903D02*
X34865Y16863D01*
X34783Y16829D01*
X34713Y16775D01*
X34659Y16705D01*
X34625Y16623D01*
X34620Y16585D01*
X34903D01*
Y16868D01*
D02*
G37*
G36*
X25553Y20025D02*
X24841D01*
Y19550D01*
X25044D01*
Y17147D01*
X24447D01*
Y17062D01*
X24155D01*
Y17137D01*
X23463D01*
Y16681D01*
X24155D01*
Y16757D01*
X24447D01*
Y16672D01*
X25159D01*
Y16757D01*
X25941D01*
X27254Y15443D01*
X27304Y15410D01*
X27362Y15398D01*
X27646D01*
X27659Y15366D01*
X27713Y15296D01*
X27783Y15242D01*
X27865Y15208D01*
X27953Y15196D01*
X28041Y15208D01*
X28122Y15242D01*
X28193Y15296D01*
X28246Y15366D01*
X28280Y15448D01*
X28292Y15535D01*
X28280Y15623D01*
X28246Y15705D01*
X28193Y15775D01*
X28122Y15829D01*
X28041Y15863D01*
X27953Y15875D01*
X27865Y15863D01*
X27783Y15829D01*
X27713Y15775D01*
X27659Y15705D01*
X27659Y15704D01*
X27426D01*
X26112Y17018D01*
X26062Y17051D01*
X26004Y17062D01*
X25350D01*
Y19550D01*
X25553D01*
Y20025D01*
D02*
G37*
G36*
X35003Y16868D02*
Y16585D01*
X35285D01*
X35280Y16623D01*
X35246Y16705D01*
X35193Y16775D01*
X35122Y16829D01*
X35041Y16863D01*
X35003Y16868D01*
D02*
G37*
G36*
X24753Y16399D02*
X24447D01*
Y16211D01*
X24753D01*
Y16399D01*
D02*
G37*
G36*
X35285Y16485D02*
X35003D01*
Y16203D01*
X35041Y16208D01*
X35122Y16242D01*
X35193Y16296D01*
X35246Y16366D01*
X35280Y16448D01*
X35285Y16485D01*
D02*
G37*
G36*
X25159Y16399D02*
X24853D01*
Y16211D01*
X25159D01*
Y16399D01*
D02*
G37*
G36*
X22009Y16419D02*
X21704D01*
Y16231D01*
X22009D01*
Y16419D01*
D02*
G37*
G36*
X21604D02*
X21298D01*
Y16231D01*
X21604D01*
Y16419D01*
D02*
G37*
G36*
X26722Y22233D02*
X26416D01*
Y22046D01*
X26722D01*
Y22233D01*
D02*
G37*
G36*
X34953Y32875D02*
X34865Y32863D01*
X34783Y32829D01*
X34713Y32775D01*
X34659Y32705D01*
X34625Y32623D01*
X34614Y32535D01*
X34625Y32448D01*
X34659Y32366D01*
X34713Y32296D01*
X34783Y32242D01*
X34865Y32208D01*
X34953Y32196D01*
X35041Y32208D01*
X35122Y32242D01*
X35193Y32296D01*
X35246Y32366D01*
X35280Y32448D01*
X35292Y32535D01*
X35280Y32623D01*
X35246Y32705D01*
X35193Y32775D01*
X35122Y32829D01*
X35041Y32863D01*
X34953Y32875D01*
D02*
G37*
G36*
X27953D02*
X27865Y32863D01*
X27783Y32829D01*
X27713Y32775D01*
X27659Y32705D01*
X27625Y32623D01*
X27614Y32535D01*
X27625Y32448D01*
X27659Y32366D01*
X27713Y32296D01*
X27783Y32242D01*
X27865Y32208D01*
X27953Y32196D01*
X28041Y32208D01*
X28122Y32242D01*
X28193Y32296D01*
X28246Y32366D01*
X28280Y32448D01*
X28292Y32535D01*
X28280Y32623D01*
X28246Y32705D01*
X28193Y32775D01*
X28122Y32829D01*
X28041Y32863D01*
X27953Y32875D01*
D02*
G37*
G36*
Y33875D02*
X27865Y33863D01*
X27783Y33829D01*
X27713Y33775D01*
X27659Y33705D01*
X27625Y33623D01*
X27614Y33535D01*
X27625Y33448D01*
X27659Y33366D01*
X27713Y33296D01*
X27783Y33242D01*
X27865Y33208D01*
X27953Y33196D01*
X28041Y33208D01*
X28122Y33242D01*
X28193Y33296D01*
X28246Y33366D01*
X28280Y33448D01*
X28292Y33535D01*
X28280Y33623D01*
X28246Y33705D01*
X28193Y33775D01*
X28122Y33829D01*
X28041Y33863D01*
X27953Y33875D01*
D02*
G37*
G36*
Y34875D02*
X27865Y34863D01*
X27783Y34829D01*
X27713Y34775D01*
X27659Y34705D01*
X27625Y34623D01*
X27614Y34535D01*
X27625Y34448D01*
X27659Y34366D01*
X27713Y34296D01*
X27783Y34242D01*
X27865Y34208D01*
X27953Y34196D01*
X28041Y34208D01*
X28122Y34242D01*
X28193Y34296D01*
X28246Y34366D01*
X28280Y34448D01*
X28292Y34535D01*
X28280Y34623D01*
X28246Y34705D01*
X28193Y34775D01*
X28122Y34829D01*
X28041Y34863D01*
X27953Y34875D01*
D02*
G37*
G36*
X34953Y33875D02*
X34865Y33863D01*
X34783Y33829D01*
X34713Y33775D01*
X34659Y33705D01*
X34625Y33623D01*
X34614Y33535D01*
X34625Y33448D01*
X34659Y33366D01*
X34713Y33296D01*
X34783Y33242D01*
X34865Y33208D01*
X34953Y33196D01*
X35041Y33208D01*
X35122Y33242D01*
X35193Y33296D01*
X35246Y33366D01*
X35280Y33448D01*
X35292Y33535D01*
X35280Y33623D01*
X35246Y33705D01*
X35193Y33775D01*
X35122Y33829D01*
X35041Y33863D01*
X34953Y33875D01*
D02*
G37*
G36*
X27953Y29875D02*
X27865Y29863D01*
X27783Y29829D01*
X27713Y29775D01*
X27659Y29705D01*
X27625Y29623D01*
X27614Y29535D01*
X27625Y29448D01*
X27659Y29366D01*
X27713Y29296D01*
X27783Y29242D01*
X27865Y29208D01*
X27953Y29196D01*
X28041Y29208D01*
X28122Y29242D01*
X28193Y29296D01*
X28246Y29366D01*
X28280Y29448D01*
X28292Y29535D01*
X28280Y29623D01*
X28246Y29705D01*
X28193Y29775D01*
X28122Y29829D01*
X28041Y29863D01*
X27953Y29875D01*
D02*
G37*
G36*
Y28875D02*
X27865Y28863D01*
X27783Y28829D01*
X27713Y28775D01*
X27659Y28705D01*
X27625Y28623D01*
X27614Y28535D01*
X27625Y28448D01*
X27659Y28366D01*
X27713Y28296D01*
X27783Y28242D01*
X27865Y28208D01*
X27953Y28196D01*
X28041Y28208D01*
X28122Y28242D01*
X28193Y28296D01*
X28246Y28366D01*
X28280Y28448D01*
X28292Y28535D01*
X28280Y28623D01*
X28246Y28705D01*
X28193Y28775D01*
X28122Y28829D01*
X28041Y28863D01*
X27953Y28875D01*
D02*
G37*
G36*
Y30875D02*
X27865Y30863D01*
X27783Y30829D01*
X27713Y30775D01*
X27659Y30705D01*
X27625Y30623D01*
X27614Y30535D01*
X27625Y30448D01*
X27659Y30366D01*
X27713Y30296D01*
X27783Y30242D01*
X27865Y30208D01*
X27953Y30196D01*
X28041Y30208D01*
X28122Y30242D01*
X28193Y30296D01*
X28246Y30366D01*
X28280Y30448D01*
X28292Y30535D01*
X28280Y30623D01*
X28246Y30705D01*
X28193Y30775D01*
X28122Y30829D01*
X28041Y30863D01*
X27953Y30875D01*
D02*
G37*
G36*
X34953Y31875D02*
X34865Y31863D01*
X34783Y31829D01*
X34713Y31775D01*
X34659Y31705D01*
X34625Y31623D01*
X34614Y31535D01*
X34625Y31448D01*
X34659Y31366D01*
X34713Y31296D01*
X34783Y31242D01*
X34865Y31208D01*
X34953Y31196D01*
X35041Y31208D01*
X35122Y31242D01*
X35193Y31296D01*
X35246Y31366D01*
X35280Y31448D01*
X35292Y31535D01*
X35280Y31623D01*
X35246Y31705D01*
X35193Y31775D01*
X35122Y31829D01*
X35041Y31863D01*
X34953Y31875D01*
D02*
G37*
G36*
Y30875D02*
X34865Y30863D01*
X34783Y30829D01*
X34713Y30775D01*
X34659Y30705D01*
X34625Y30623D01*
X34614Y30535D01*
X34625Y30448D01*
X34659Y30366D01*
X34713Y30296D01*
X34783Y30242D01*
X34865Y30208D01*
X34953Y30196D01*
X35041Y30208D01*
X35122Y30242D01*
X35193Y30296D01*
X35246Y30366D01*
X35280Y30448D01*
X35292Y30535D01*
X35280Y30623D01*
X35246Y30705D01*
X35193Y30775D01*
X35122Y30829D01*
X35041Y30863D01*
X34953Y30875D01*
D02*
G37*
G36*
X16092Y44359D02*
X15690D01*
X15699Y44291D01*
X15745Y44180D01*
X15818Y44085D01*
X15913Y44013D01*
X16023Y43967D01*
X16092Y43958D01*
Y44359D01*
D02*
G37*
G36*
X30501Y42883D02*
X30331D01*
Y42862D01*
X30340Y42816D01*
X30366Y42777D01*
X30405Y42751D01*
X30451Y42742D01*
X30501D01*
Y42883D01*
D02*
G37*
G36*
X16593Y44359D02*
X16192D01*
Y43958D01*
X16260Y43967D01*
X16371Y44013D01*
X16466Y44085D01*
X16539Y44180D01*
X16584Y44291D01*
X16593Y44359D01*
D02*
G37*
G36*
X16192Y44861D02*
Y44459D01*
X16593D01*
X16584Y44528D01*
X16539Y44639D01*
X16466Y44733D01*
X16371Y44806D01*
X16260Y44852D01*
X16192Y44861D01*
D02*
G37*
G36*
X16092Y44861D02*
X16023Y44852D01*
X15913Y44806D01*
X15818Y44733D01*
X15745Y44639D01*
X15699Y44528D01*
X15690Y44459D01*
X16092D01*
Y44861D01*
D02*
G37*
G36*
X32283Y44641D02*
X30709D01*
X30650Y44629D01*
X30601Y44596D01*
X30207Y44203D01*
X30174Y44153D01*
X30162Y44094D01*
Y43701D01*
X30174Y43642D01*
X30207Y43593D01*
X30227Y43573D01*
X30276Y43540D01*
X30335Y43528D01*
X30364D01*
X30366Y43525D01*
X30368Y43524D01*
Y43464D01*
X30366Y43463D01*
X30340Y43424D01*
X30331Y43378D01*
Y43357D01*
X30551D01*
Y43257D01*
X30331D01*
Y43236D01*
X30340Y43190D01*
X30366Y43151D01*
X30368Y43150D01*
Y43090D01*
X30366Y43089D01*
X30340Y43050D01*
X30331Y43004D01*
Y42983D01*
X30551D01*
Y42933D01*
X30601D01*
Y42742D01*
X30652D01*
X30698Y42751D01*
X30706Y42757D01*
X30751Y42779D01*
X30804Y42744D01*
X30866Y42732D01*
X31339D01*
X31401Y42744D01*
X31420Y42757D01*
X31438Y42748D01*
X31448Y42688D01*
X31388Y42628D01*
X31355Y42578D01*
X31345Y42530D01*
X31343Y42520D01*
X31317Y42482D01*
X31293Y42482D01*
X31152D01*
Y42126D01*
Y41770D01*
X31340Y41770D01*
X31343Y41721D01*
Y34118D01*
X28913Y31688D01*
X28253D01*
X28246Y31705D01*
X28193Y31775D01*
X28122Y31829D01*
X28041Y31863D01*
X27953Y31875D01*
X27865Y31863D01*
X27783Y31829D01*
X27713Y31775D01*
X27659Y31705D01*
X27625Y31623D01*
X27614Y31535D01*
X27625Y31448D01*
X27659Y31366D01*
X27713Y31296D01*
X27783Y31242D01*
X27865Y31208D01*
X27953Y31196D01*
X28041Y31208D01*
X28122Y31242D01*
X28193Y31296D01*
X28246Y31366D01*
X28253Y31382D01*
X28976D01*
X29035Y31394D01*
X29085Y31427D01*
X31604Y33947D01*
X31637Y33997D01*
X31649Y34055D01*
Y41770D01*
X32088D01*
Y41770D01*
X32131Y41752D01*
Y41301D01*
X32085D01*
Y40589D01*
X32131D01*
Y39726D01*
X32085D01*
Y39014D01*
X32131D01*
Y19685D01*
X32142Y19627D01*
X32175Y19577D01*
X34325Y17427D01*
X34375Y17394D01*
X34433Y17382D01*
X34652D01*
X34659Y17366D01*
X34713Y17296D01*
X34783Y17242D01*
X34865Y17208D01*
X34953Y17196D01*
X35041Y17208D01*
X35122Y17242D01*
X35193Y17296D01*
X35246Y17366D01*
X35280Y17448D01*
X35292Y17535D01*
X35280Y17623D01*
X35246Y17705D01*
X35193Y17775D01*
X35122Y17829D01*
X35041Y17863D01*
X34953Y17875D01*
X34865Y17863D01*
X34783Y17829D01*
X34713Y17775D01*
X34659Y17705D01*
X34652Y17688D01*
X34496D01*
X32436Y19748D01*
Y39014D01*
X32524D01*
Y30315D01*
X32536Y30256D01*
X32569Y30207D01*
X34349Y28427D01*
X34398Y28394D01*
X34457Y28382D01*
X34652D01*
X34659Y28366D01*
X34713Y28296D01*
X34783Y28242D01*
X34865Y28208D01*
X34953Y28196D01*
X35041Y28208D01*
X35122Y28242D01*
X35193Y28296D01*
X35246Y28366D01*
X35280Y28448D01*
X35292Y28535D01*
X35280Y28623D01*
X35246Y28705D01*
X35193Y28775D01*
X35122Y28829D01*
X35041Y28863D01*
X34953Y28875D01*
X34865Y28863D01*
X34783Y28829D01*
X34713Y28775D01*
X34659Y28705D01*
X34652Y28688D01*
X34520D01*
X32830Y30378D01*
Y38965D01*
X32833Y39014D01*
X32918D01*
Y30709D01*
X32930Y30650D01*
X32963Y30601D01*
X34144Y29419D01*
X34193Y29386D01*
X34252Y29375D01*
X34292Y29382D01*
X34652D01*
X34659Y29366D01*
X34713Y29296D01*
X34783Y29242D01*
X34865Y29208D01*
X34953Y29196D01*
X35041Y29208D01*
X35122Y29242D01*
X35193Y29296D01*
X35246Y29366D01*
X35280Y29448D01*
X35292Y29535D01*
X35280Y29623D01*
X35246Y29705D01*
X35193Y29775D01*
X35122Y29829D01*
X35041Y29863D01*
X34953Y29875D01*
X34865Y29863D01*
X34783Y29829D01*
X34713Y29775D01*
X34659Y29705D01*
X34652Y29688D01*
X34307D01*
X33224Y30772D01*
Y39014D01*
X33309D01*
Y39726D01*
X33309D01*
X33291Y39768D01*
X33966Y40443D01*
X34000Y40493D01*
X34011Y40551D01*
Y42913D01*
X34000Y42972D01*
X33966Y43022D01*
X32392Y44596D01*
X32342Y44629D01*
X32283Y44641D01*
D02*
G37*
G36*
X34953Y34875D02*
X34865Y34863D01*
X34783Y34829D01*
X34713Y34775D01*
X34659Y34705D01*
X34625Y34623D01*
X34614Y34535D01*
X34625Y34448D01*
X34659Y34366D01*
X34713Y34296D01*
X34783Y34242D01*
X34865Y34208D01*
X34953Y34196D01*
X35041Y34208D01*
X35122Y34242D01*
X35193Y34296D01*
X35246Y34366D01*
X35280Y34448D01*
X35292Y34535D01*
X35280Y34623D01*
X35246Y34705D01*
X35193Y34775D01*
X35122Y34829D01*
X35041Y34863D01*
X34953Y34875D01*
D02*
G37*
G36*
X12992Y41748D02*
X12836Y41732D01*
X12685Y41686D01*
X12546Y41612D01*
X12425Y41512D01*
X12325Y41391D01*
X12251Y41252D01*
X12205Y41101D01*
X12189Y40945D01*
X12205Y40788D01*
X12251Y40638D01*
X12325Y40499D01*
X12425Y40377D01*
X12546Y40277D01*
X12685Y40203D01*
X12836Y40158D01*
X12992Y40142D01*
X13149Y40158D01*
X13299Y40203D01*
X13438Y40277D01*
X13560Y40377D01*
X13660Y40499D01*
X13734Y40638D01*
X13779Y40788D01*
X13795Y40945D01*
X13779Y41101D01*
X13734Y41252D01*
X13660Y41391D01*
X13560Y41512D01*
X13438Y41612D01*
X13299Y41686D01*
X13149Y41732D01*
X12992Y41748D01*
D02*
G37*
G36*
X31052Y42482D02*
X30865D01*
Y42176D01*
X31052D01*
Y42482D01*
D02*
G37*
G36*
Y42076D02*
X30865D01*
Y41770D01*
X31052D01*
Y42076D01*
D02*
G37*
G36*
X25395Y28486D02*
X24211D01*
Y27813D01*
X25395D01*
Y28486D01*
D02*
G37*
G36*
X27953Y23875D02*
X27865Y23863D01*
X27783Y23829D01*
X27713Y23775D01*
X27659Y23705D01*
X27625Y23623D01*
X27614Y23535D01*
X27625Y23448D01*
X27659Y23366D01*
X27713Y23296D01*
X27783Y23242D01*
X27865Y23208D01*
X27953Y23196D01*
X28041Y23208D01*
X28122Y23242D01*
X28193Y23296D01*
X28246Y23366D01*
X28280Y23448D01*
X28292Y23535D01*
X28280Y23623D01*
X28246Y23705D01*
X28193Y23775D01*
X28122Y23829D01*
X28041Y23863D01*
X27953Y23875D01*
D02*
G37*
G36*
X27128Y22521D02*
X26822D01*
Y22333D01*
X27128D01*
Y22521D01*
D02*
G37*
G36*
X34953Y23875D02*
X34865Y23863D01*
X34783Y23829D01*
X34713Y23775D01*
X34659Y23705D01*
X34625Y23623D01*
X34614Y23535D01*
X34625Y23448D01*
X34659Y23366D01*
X34713Y23296D01*
X34783Y23242D01*
X34865Y23208D01*
X34953Y23196D01*
X35041Y23208D01*
X35122Y23242D01*
X35193Y23296D01*
X35246Y23366D01*
X35280Y23448D01*
X35292Y23535D01*
X35280Y23623D01*
X35246Y23705D01*
X35193Y23775D01*
X35122Y23829D01*
X35041Y23863D01*
X34953Y23875D01*
D02*
G37*
G36*
Y24875D02*
X34865Y24863D01*
X34783Y24829D01*
X34713Y24775D01*
X34659Y24705D01*
X34625Y24623D01*
X34614Y24535D01*
X34625Y24448D01*
X34659Y24366D01*
X34713Y24296D01*
X34783Y24242D01*
X34865Y24208D01*
X34953Y24196D01*
X35041Y24208D01*
X35122Y24242D01*
X35193Y24296D01*
X35246Y24366D01*
X35280Y24448D01*
X35292Y24535D01*
X35280Y24623D01*
X35246Y24705D01*
X35193Y24775D01*
X35122Y24829D01*
X35041Y24863D01*
X34953Y24875D01*
D02*
G37*
G36*
X27953D02*
X27865Y24863D01*
X27783Y24829D01*
X27713Y24775D01*
X27659Y24705D01*
X27625Y24623D01*
X27614Y24535D01*
X27625Y24448D01*
X27659Y24366D01*
X27713Y24296D01*
X27783Y24242D01*
X27865Y24208D01*
X27953Y24196D01*
X28041Y24208D01*
X28122Y24242D01*
X28193Y24296D01*
X28246Y24366D01*
X28280Y24448D01*
X28292Y24535D01*
X28280Y24623D01*
X28246Y24705D01*
X28193Y24775D01*
X28122Y24829D01*
X28041Y24863D01*
X27953Y24875D01*
D02*
G37*
G36*
X23230Y26517D02*
X22046D01*
Y25845D01*
X22485D01*
Y24016D01*
X22497Y23957D01*
X22530Y23908D01*
X23469Y22968D01*
Y22521D01*
X23266D01*
Y22436D01*
X22874D01*
X22815Y22425D01*
X22766Y22392D01*
X22539Y22165D01*
X22506Y22116D01*
X22495Y22057D01*
Y17137D01*
X22302D01*
Y17062D01*
X22009D01*
Y17167D01*
X21298D01*
Y16691D01*
X22009D01*
Y16757D01*
X22302D01*
Y16585D01*
X22648D01*
Y16485D01*
X22302D01*
Y16307D01*
Y15933D01*
X22994D01*
Y15989D01*
X23228D01*
X23287Y16000D01*
X23336Y16034D01*
X23370Y16083D01*
X23381Y16142D01*
Y16732D01*
X23370Y16791D01*
X23336Y16840D01*
X23159Y17018D01*
X23110Y17051D01*
X23051Y17062D01*
X22994D01*
Y17137D01*
X22801D01*
Y21994D01*
X22937Y22131D01*
X23266D01*
Y22046D01*
X23978D01*
Y22131D01*
X24349D01*
Y22056D01*
X25021D01*
Y22511D01*
X24349D01*
Y22436D01*
X23978D01*
Y22521D01*
X23775D01*
Y23031D01*
X23763Y23090D01*
X23730Y23140D01*
X22791Y24079D01*
Y25845D01*
X23230D01*
Y26517D01*
D02*
G37*
G36*
X27128Y22233D02*
X26822D01*
Y22046D01*
X27128D01*
Y22233D01*
D02*
G37*
G36*
X27953Y22875D02*
X27865Y22863D01*
X27783Y22829D01*
X27713Y22775D01*
X27659Y22705D01*
X27625Y22623D01*
X27614Y22535D01*
X27625Y22448D01*
X27659Y22366D01*
X27713Y22296D01*
X27783Y22242D01*
X27865Y22208D01*
X27953Y22196D01*
X28041Y22208D01*
X28122Y22242D01*
X28193Y22296D01*
X28246Y22366D01*
X28280Y22448D01*
X28292Y22535D01*
X28280Y22623D01*
X28246Y22705D01*
X28193Y22775D01*
X28122Y22829D01*
X28041Y22863D01*
X27953Y22875D01*
D02*
G37*
G36*
X26722Y22521D02*
X26416D01*
Y22333D01*
X26722D01*
Y22521D01*
D02*
G37*
G36*
X34953Y22875D02*
X34865Y22863D01*
X34783Y22829D01*
X34713Y22775D01*
X34659Y22705D01*
X34625Y22623D01*
X34614Y22535D01*
X34625Y22448D01*
X34659Y22366D01*
X34713Y22296D01*
X34783Y22242D01*
X34865Y22208D01*
X34953Y22196D01*
X35041Y22208D01*
X35122Y22242D01*
X35193Y22296D01*
X35246Y22366D01*
X35280Y22448D01*
X35292Y22535D01*
X35280Y22623D01*
X35246Y22705D01*
X35193Y22775D01*
X35122Y22829D01*
X35041Y22863D01*
X34953Y22875D01*
D02*
G37*
G36*
X25395Y27502D02*
X24211D01*
Y26829D01*
X25395D01*
Y27502D01*
D02*
G37*
G36*
X23230D02*
X22046D01*
Y27318D01*
X18110D01*
X18052Y27307D01*
X18002Y27273D01*
X16034Y25305D01*
X16000Y25255D01*
X15989Y25197D01*
Y16405D01*
X15913Y16373D01*
X15818Y16300D01*
X15745Y16206D01*
X15699Y16095D01*
X15683Y15976D01*
X15699Y15858D01*
X15745Y15747D01*
X15818Y15652D01*
X15913Y15580D01*
X16023Y15534D01*
X16142Y15518D01*
X16260Y15534D01*
X16371Y15580D01*
X16466Y15652D01*
X16539Y15747D01*
X16584Y15858D01*
X16600Y15976D01*
X16584Y16095D01*
X16539Y16206D01*
X16466Y16300D01*
X16371Y16373D01*
X16295Y16405D01*
Y25134D01*
X18174Y27012D01*
X22046D01*
Y26829D01*
X23230D01*
Y27502D01*
D02*
G37*
G36*
X27953Y27875D02*
X27865Y27863D01*
X27783Y27829D01*
X27713Y27775D01*
X27659Y27705D01*
X27625Y27623D01*
X27614Y27535D01*
X27625Y27448D01*
X27659Y27366D01*
X27713Y27296D01*
X27783Y27242D01*
X27865Y27208D01*
X27953Y27196D01*
X28041Y27208D01*
X28122Y27242D01*
X28193Y27296D01*
X28246Y27366D01*
X28280Y27448D01*
X28292Y27535D01*
X28280Y27623D01*
X28246Y27705D01*
X28193Y27775D01*
X28122Y27829D01*
X28041Y27863D01*
X27953Y27875D01*
D02*
G37*
G36*
X23230Y28486D02*
X22046D01*
Y27813D01*
X23230D01*
Y28486D01*
D02*
G37*
G36*
X34953Y27875D02*
X34865Y27863D01*
X34783Y27829D01*
X34713Y27775D01*
X34659Y27705D01*
X34625Y27623D01*
X34614Y27535D01*
X34625Y27448D01*
X34659Y27366D01*
X34713Y27296D01*
X34783Y27242D01*
X34865Y27208D01*
X34953Y27196D01*
X35041Y27208D01*
X35122Y27242D01*
X35193Y27296D01*
X35246Y27366D01*
X35280Y27448D01*
X35292Y27535D01*
X35280Y27623D01*
X35246Y27705D01*
X35193Y27775D01*
X35122Y27829D01*
X35041Y27863D01*
X34953Y27875D01*
D02*
G37*
G36*
Y25875D02*
X34865Y25863D01*
X34783Y25829D01*
X34713Y25775D01*
X34659Y25705D01*
X34625Y25623D01*
X34614Y25535D01*
X34625Y25448D01*
X34659Y25366D01*
X34713Y25296D01*
X34783Y25242D01*
X34865Y25208D01*
X34953Y25196D01*
X35041Y25208D01*
X35122Y25242D01*
X35193Y25296D01*
X35246Y25366D01*
X35280Y25448D01*
X35292Y25535D01*
X35280Y25623D01*
X35246Y25705D01*
X35193Y25775D01*
X35122Y25829D01*
X35041Y25863D01*
X34953Y25875D01*
D02*
G37*
G36*
X27953D02*
X27865Y25863D01*
X27783Y25829D01*
X27713Y25775D01*
X27659Y25705D01*
X27625Y25623D01*
X27614Y25535D01*
X27625Y25448D01*
X27659Y25366D01*
X27713Y25296D01*
X27783Y25242D01*
X27865Y25208D01*
X27953Y25196D01*
X28041Y25208D01*
X28122Y25242D01*
X28193Y25296D01*
X28246Y25366D01*
X28280Y25448D01*
X28292Y25535D01*
X28280Y25623D01*
X28246Y25705D01*
X28193Y25775D01*
X28122Y25829D01*
X28041Y25863D01*
X27953Y25875D01*
D02*
G37*
G36*
X25395Y26517D02*
X24211D01*
Y25845D01*
X25395D01*
Y26517D01*
D02*
G37*
G36*
X34953Y26875D02*
X34865Y26863D01*
X34783Y26829D01*
X34713Y26775D01*
X34659Y26705D01*
X34625Y26623D01*
X34614Y26535D01*
X34625Y26448D01*
X34659Y26366D01*
X34713Y26296D01*
X34783Y26242D01*
X34865Y26208D01*
X34953Y26196D01*
X35041Y26208D01*
X35122Y26242D01*
X35193Y26296D01*
X35246Y26366D01*
X35280Y26448D01*
X35292Y26535D01*
X35280Y26623D01*
X35246Y26705D01*
X35193Y26775D01*
X35122Y26829D01*
X35041Y26863D01*
X34953Y26875D01*
D02*
G37*
G36*
X27953D02*
X27865Y26863D01*
X27783Y26829D01*
X27713Y26775D01*
X27659Y26705D01*
X27625Y26623D01*
X27614Y26535D01*
X27625Y26448D01*
X27659Y26366D01*
X27713Y26296D01*
X27783Y26242D01*
X27865Y26208D01*
X27953Y26196D01*
X28041Y26208D01*
X28122Y26242D01*
X28193Y26296D01*
X28246Y26366D01*
X28280Y26448D01*
X28292Y26535D01*
X28280Y26623D01*
X28246Y26705D01*
X28193Y26775D01*
X28122Y26829D01*
X28041Y26863D01*
X27953Y26875D01*
D02*
G37*
%LPD*%
D10*
X22648Y16161D02*
D03*
Y16535D02*
D03*
Y16909D02*
D03*
X23809D02*
D03*
Y16161D02*
D03*
D11*
X31102Y43307D02*
D03*
D12*
X31654Y42933D02*
D03*
Y43307D02*
D03*
Y43681D02*
D03*
X30551D02*
D03*
Y43307D02*
D03*
Y42933D02*
D03*
D13*
X24803Y26181D02*
D03*
Y27165D02*
D03*
Y28150D02*
D03*
X22638D02*
D03*
Y27165D02*
D03*
Y26181D02*
D03*
D14*
X21654Y16181D02*
D03*
Y16929D02*
D03*
X24803Y16909D02*
D03*
Y16161D02*
D03*
X26181Y19787D02*
D03*
Y20535D02*
D03*
X26772Y21535D02*
D03*
Y22283D02*
D03*
X25197Y20535D02*
D03*
Y19787D02*
D03*
X23622Y21535D02*
D03*
Y22283D02*
D03*
D15*
X33071Y39370D02*
D03*
Y40945D02*
D03*
X32323D02*
D03*
Y39370D02*
D03*
X31850Y42126D02*
D03*
X31102D02*
D03*
D16*
X24685Y21535D02*
D03*
X25709Y21909D02*
D03*
X24685Y22283D02*
D03*
D17*
X16142Y15976D02*
Y25197D01*
X18110Y27165D01*
X22638D01*
Y26181D02*
Y24016D01*
X23622Y23031D01*
Y22283D01*
X24685D01*
Y21535D02*
X26772D01*
X27953D01*
Y20535D02*
X26181D01*
X25197D01*
Y19787D02*
Y16909D01*
X26004D01*
X27362Y15551D01*
X27929D01*
X28039Y15441D01*
X25197Y16909D02*
X24803D01*
X23809D01*
X23051D02*
X23228Y16732D01*
Y16142D01*
X22667D01*
X22648Y16161D01*
Y16535D02*
X22362D01*
X22648Y16909D02*
X23051D01*
X24803Y16161D02*
X24823Y16142D01*
X22008Y16181D02*
X21654D01*
X21673Y16909D02*
X22648D01*
Y22057D01*
X22874Y22283D01*
X23622D01*
X21654Y16929D02*
X21673Y16909D01*
X32283Y19685D02*
Y42126D01*
Y42913D01*
X31890Y43307D01*
X31654D01*
Y43681D02*
X32303D01*
X33071Y42913D01*
Y40945D01*
Y40157D01*
X32677Y39764D01*
Y30315D01*
X34457Y28535D01*
X34953D01*
Y29535D02*
X34260D01*
X34252Y29528D01*
X33071Y30709D01*
Y39370D01*
Y39764D01*
X33858Y40551D01*
Y42913D01*
X32283Y44488D01*
X30709D01*
X30315Y44094D01*
Y43701D01*
X30335Y43681D01*
X30551D01*
Y43307D02*
Y42933D01*
X31654D02*
Y42677D01*
X31496Y42520D01*
Y34055D01*
X28976Y31535D01*
X27953D01*
X32283Y42126D02*
X31850D01*
X30551Y43307D02*
X28740D01*
Y43307D02*
X25591D01*
X24488Y44409D01*
X16142D01*
X32283Y19685D02*
X34433Y17535D01*
X34953D01*
D18*
X16142Y15976D02*
D03*
Y44409D02*
D03*
D19*
X12992Y15976D02*
D03*
D20*
X19291Y19213D02*
D03*
X12992Y40945D02*
D03*
D21*
X27953Y15535D02*
D03*
Y16535D02*
D03*
Y17535D02*
D03*
Y18535D02*
D03*
Y19535D02*
D03*
Y20535D02*
D03*
Y21535D02*
D03*
Y22535D02*
D03*
Y23535D02*
D03*
Y24535D02*
D03*
Y25535D02*
D03*
Y26535D02*
D03*
Y27535D02*
D03*
Y28535D02*
D03*
Y29535D02*
D03*
Y30535D02*
D03*
Y31535D02*
D03*
Y32535D02*
D03*
Y33535D02*
D03*
Y34535D02*
D03*
X34953Y27535D02*
D03*
Y26535D02*
D03*
Y25535D02*
D03*
Y24535D02*
D03*
Y23535D02*
D03*
Y22535D02*
D03*
Y21535D02*
D03*
Y20535D02*
D03*
Y19535D02*
D03*
Y18535D02*
D03*
Y17535D02*
D03*
Y16535D02*
D03*
Y15535D02*
D03*
Y28535D02*
D03*
Y29535D02*
D03*
Y30535D02*
D03*
Y31535D02*
D03*
Y32535D02*
D03*
Y33535D02*
D03*
Y34535D02*
D03*
D22*
X11811Y12992D02*
D03*
X35433D02*
D03*
Y46850D02*
D03*
X11811D02*
D03*
%TF.MD5,d95b957a0dcb7fe3a400a6a24d03be44*%
M02*
