G04 Layer_Color=8388736*
%FSLAX24Y24*%
%MOIN*%
%TF.FileFunction,Soldermask,Top*%
%TF.Part,Single*%
G01*
G75*
%TA.AperFunction,ComponentPad*%
%ADD19C,0.0941*%
%ADD20C,0.1398*%
%TA.AperFunction,WasherPad*%
%ADD22C,0.1398*%
%TA.AperFunction,SMDPad,CuDef*%
%ADD29R,0.0547X0.0311*%
%ADD30R,0.0572X0.0336*%
G04:AMPARAMS|DCode=31|XSize=63mil|YSize=98.4mil|CornerRadius=7.9mil|HoleSize=0mil|Usage=FLASHONLY|Rotation=0.000|XOffset=0mil|YOffset=0mil|HoleType=Round|Shape=RoundedRectangle|*
%AMROUNDEDRECTD31*
21,1,0.0630,0.0827,0,0,0.0*
21,1,0.0472,0.0984,0,0,0.0*
1,1,0.0157,0.0236,-0.0413*
1,1,0.0157,-0.0236,-0.0413*
1,1,0.0157,-0.0236,0.0413*
1,1,0.0157,0.0236,0.0413*
%
%ADD31ROUNDEDRECTD31*%
G04:AMPARAMS|DCode=32|XSize=27.6mil|YSize=21.7mil|CornerRadius=3.7mil|HoleSize=0mil|Usage=FLASHONLY|Rotation=0.000|XOffset=0mil|YOffset=0mil|HoleType=Round|Shape=RoundedRectangle|*
%AMROUNDEDRECTD32*
21,1,0.0276,0.0142,0,0,0.0*
21,1,0.0201,0.0217,0,0,0.0*
1,1,0.0075,0.0100,-0.0071*
1,1,0.0075,-0.0100,-0.0071*
1,1,0.0075,-0.0100,0.0071*
1,1,0.0075,0.0100,0.0071*
%
%ADD32ROUNDEDRECTD32*%
%ADD33R,0.1064X0.0552*%
%ADD34R,0.0592X0.0356*%
%ADD35R,0.0356X0.0592*%
%ADD36R,0.0552X0.0336*%
%TA.AperFunction,ComponentPad*%
%ADD37C,0.0764*%
%ADD38C,0.0528*%
D19*
X12992Y15976D02*
D03*
D20*
X19291Y19213D02*
D03*
X12992Y40945D02*
D03*
D22*
X11811Y12992D02*
D03*
X35433D02*
D03*
Y46850D02*
D03*
X11811D02*
D03*
D29*
X22648Y16161D02*
D03*
Y16535D02*
D03*
Y16909D02*
D03*
D30*
X23809Y16161D02*
D03*
Y16909D02*
D03*
D31*
X31102Y43307D02*
D03*
D32*
X31654Y42933D02*
D03*
Y43307D02*
D03*
Y43681D02*
D03*
X30551D02*
D03*
Y43307D02*
D03*
Y42933D02*
D03*
D33*
X24803Y26181D02*
D03*
Y27165D02*
D03*
Y28150D02*
D03*
X22638D02*
D03*
Y27165D02*
D03*
Y26181D02*
D03*
D34*
X21654Y16181D02*
D03*
Y16929D02*
D03*
X24803Y16909D02*
D03*
Y16161D02*
D03*
X26181Y19787D02*
D03*
Y20535D02*
D03*
X26772Y21535D02*
D03*
Y22283D02*
D03*
X25197Y20535D02*
D03*
Y19787D02*
D03*
X23622Y21535D02*
D03*
Y22283D02*
D03*
D35*
X33071Y39370D02*
D03*
Y40945D02*
D03*
X32323D02*
D03*
Y39370D02*
D03*
X31850Y42126D02*
D03*
X31102D02*
D03*
D36*
X24685Y21535D02*
D03*
X25709Y21909D02*
D03*
X24685Y22283D02*
D03*
D37*
X16142Y15976D02*
D03*
Y44409D02*
D03*
D38*
X27953Y15535D02*
D03*
Y16535D02*
D03*
Y17535D02*
D03*
Y18535D02*
D03*
Y19535D02*
D03*
Y20535D02*
D03*
Y21535D02*
D03*
Y22535D02*
D03*
Y23535D02*
D03*
Y24535D02*
D03*
Y25535D02*
D03*
Y26535D02*
D03*
Y27535D02*
D03*
Y28535D02*
D03*
Y29535D02*
D03*
Y30535D02*
D03*
Y31535D02*
D03*
Y32535D02*
D03*
Y33535D02*
D03*
Y34535D02*
D03*
X34953Y27535D02*
D03*
Y26535D02*
D03*
Y25535D02*
D03*
Y24535D02*
D03*
Y23535D02*
D03*
Y22535D02*
D03*
Y21535D02*
D03*
Y20535D02*
D03*
Y19535D02*
D03*
Y18535D02*
D03*
Y17535D02*
D03*
Y16535D02*
D03*
Y15535D02*
D03*
Y28535D02*
D03*
Y29535D02*
D03*
Y30535D02*
D03*
Y31535D02*
D03*
Y32535D02*
D03*
Y33535D02*
D03*
Y34535D02*
D03*
%TF.MD5,823c9f189d3a57d16e0533235656af62*%
M02*
