G04 Layer_Color=128*
%FSLAX24Y24*%
%MOIN*%
%TF.FileFunction,Drillmap*%
%TF.Part,Single*%
G01*
G75*
%TA.AperFunction,NonConductor*%
%ADD27C,0.0050*%
D27*
X11811Y12293D02*
Y13691D01*
X11112Y12992D02*
X12510D01*
X12992Y15506D02*
Y16447D01*
X13463Y15976D02*
X12522D01*
X15866D02*
X16417D01*
X16142Y16252D02*
Y15701D01*
X19291Y18514D02*
Y19911D01*
X19990Y19213D02*
X18593D01*
X27776Y15535D02*
X28130D01*
Y16535D02*
X27776D01*
X27953Y16358D02*
Y16713D01*
Y15713D02*
Y15358D01*
X28130Y17535D02*
X27776D01*
X27953Y17358D02*
Y17713D01*
X28130Y18535D02*
X27776D01*
X27953Y18358D02*
Y18713D01*
X28130Y19535D02*
X27776D01*
X27953Y19358D02*
Y19713D01*
X28130Y20535D02*
X27776D01*
X27953Y20358D02*
Y20713D01*
X28130Y21535D02*
X27776D01*
X27953Y21358D02*
Y21713D01*
X28130Y22535D02*
X27776D01*
X27953Y22358D02*
Y22713D01*
X28130Y23535D02*
X27776D01*
X27953Y23358D02*
Y23713D01*
X28130Y24535D02*
X27776D01*
X27953Y24358D02*
Y24713D01*
X28130Y25535D02*
X27776D01*
X27953Y25358D02*
Y25713D01*
X28130Y26535D02*
X27776D01*
X27953Y26358D02*
Y26713D01*
X28130Y27535D02*
X27776D01*
X27953Y27358D02*
Y27713D01*
X28130Y28535D02*
X27776D01*
X27953Y28358D02*
Y28713D01*
X28130Y29535D02*
X27776D01*
X27953Y29358D02*
Y29713D01*
X28130Y30535D02*
X27776D01*
X27953Y30358D02*
Y30713D01*
X28130Y31535D02*
X27776D01*
X27953Y31358D02*
Y31713D01*
X28130Y32535D02*
X27776D01*
X27953Y32358D02*
Y32713D01*
X28130Y33535D02*
X27776D01*
X27953Y33358D02*
Y33713D01*
X28130Y34535D02*
X27776D01*
X27953Y34358D02*
Y34713D01*
X34776Y27535D02*
X35130D01*
Y26535D02*
X34776D01*
X34953Y26358D02*
Y26713D01*
Y25713D02*
Y25358D01*
X34776Y25535D02*
X35130D01*
Y24535D02*
X34776D01*
X34953Y24358D02*
Y24713D01*
Y23713D02*
Y23358D01*
X34776Y23535D02*
X35130D01*
Y22535D02*
X34776D01*
X34953Y22358D02*
Y22713D01*
Y21713D02*
Y21358D01*
X34776Y21535D02*
X35130D01*
Y20535D02*
X34776D01*
X34953Y20358D02*
Y20713D01*
Y19713D02*
Y19358D01*
X34776Y19535D02*
X35130D01*
Y18535D02*
X34776D01*
X34953Y18358D02*
Y18713D01*
Y17713D02*
Y17358D01*
X34776Y17535D02*
X35130D01*
Y16535D02*
X34776D01*
X34953Y16358D02*
Y16713D01*
Y15713D02*
Y15358D01*
X34776Y15535D02*
X35130D01*
X34734Y12992D02*
X36132D01*
X35433Y13691D02*
Y12293D01*
X34953Y27358D02*
Y27713D01*
X35130Y28535D02*
X34776D01*
X34953Y28358D02*
Y28713D01*
X35130Y29535D02*
X34776D01*
X34953Y29358D02*
Y29713D01*
X35130Y30535D02*
X34776D01*
X34953Y30358D02*
Y30713D01*
X35130Y31535D02*
X34776D01*
X34953Y31358D02*
Y31713D01*
X35130Y32535D02*
X34776D01*
X34953Y32358D02*
Y32713D01*
X35130Y33535D02*
X34776D01*
X34953Y33358D02*
Y33713D01*
X35130Y34535D02*
X34776D01*
X34953Y34358D02*
Y34713D01*
X36132Y46850D02*
X34734D01*
X35433Y46152D02*
Y47549D01*
X16417Y44409D02*
X15866D01*
X16142Y44134D02*
Y44685D01*
X12992Y41644D02*
Y40246D01*
X13691Y40945D02*
X12293D01*
X12510Y46850D02*
X11112D01*
X11811Y46152D02*
Y47549D01*
%TF.MD5,788ced2d1eeed5e179192e491fcfe820*%
M02*
