<?xml version="1.0" standalone="no"?>
<!-- Generator: Adobe Fireworks 10, Export SVG Extension by Aaron Beall (http://fireworks.abeall.com) . Version: 0.6.1  -->
<!DOCTYPE svg PUBLIC "-//W3C//DTD SVG 1.1//EN" "http://www.w3.org/Graphics/SVG/1.1/DTD/svg11.dtd">
<svg id="Untitled-Page%201" viewBox="0 0 330 240" style="background-color:#ffffff00" version="1.1"
	xmlns="http://www.w3.org/2000/svg" xmlns:xlink="http://www.w3.org/1999/xlink" xml:space="preserve"
	x="0px" y="0px" width="330px" height="240px"
>
	<g id="Layer%201">
		<path id="Ellipse" d="M 140.9434 112.8126 C 140.9434 97.5694 153.3002 85.2126 168.5434 85.2126 C 183.7867 85.2126 196.1434 97.5694 196.1434 112.8126 C 196.1434 128.0559 183.7867 140.4126 168.5434 140.4126 C 153.3002 140.4126 140.9434 128.0559 140.9434 112.8126 Z" fill="#dce0e4"/>
		<path d="M 219.8786 134.1402 C 214.0425 148.7131 202.8405 159.4965 189.4658 165.1366 L 198.767 187.0485 C 217.7367 179.043 233.5952 163.7502 241.8588 143.0913 L 219.8786 134.1402 Z" fill="#dce0e4"/>
		<path d="M 188.1511 60.5678 C 217.1979 72.3151 231.5407 105.0196 219.8813 134.1334 C 219.8786 134.1402 219.8786 134.1402 219.8786 134.1402 L 241.8701 143.0959 C 258.377 101.8287 238.2543 54.909 197.0825 38.3074 L 188.1436 60.5648 L 188.1511 60.5678 Z" fill="#3a506b"/>
		<path d="M 188.1436 60.5648 L 196.9134 38.7286 C 186.8479 34.6697 176.421 32.7987 166.2139 32.931 L 166.4755 56.4462 C 173.688 56.3832 181.0161 57.6884 188.1436 60.5648 Z" fill="#91d5d2"/>
		<path d="M 189.265 165.5678 C 175.91 171.2083 160.3957 171.7179 145.8877 165.7681 C 116.9153 153.8865 102.9479 120.7507 114.6231 91.7622 C 123.4191 69.9227 144.293 56.6254 166.4583 56.4392 L 166.2139 32.931 C 134.8799 33.1854 105.3495 52.0455 92.8948 82.9332 C 76.3723 123.909 96.092 170.8463 137.0646 187.698 C 157.6335 196.1578 179.6479 195.4741 198.5844 187.5045 L 189.265 165.5678 Z" fill="#5bc0be"/>
		<path d="M 269.3434 112.8115 C 269.3434 169.1475 223.6805 214.8126 167.3467 214.8126 C 111.0107 214.8126 65.3434 169.1475 65.3434 112.8115 C 65.3434 56.4778 111.0107 10.8126 167.3467 10.8126 C 223.6805 10.8126 269.3434 56.4778 269.3434 112.8115 Z" stroke="#dce0e4" stroke-width="1" fill="none"/>
		<path d="M 141.2737 18.2425 C 141.2737 23.6299 136.9127 27.9876 131.535 27.9876 C 126.1573 27.9876 121.7914 23.6299 121.7914 18.2425 C 121.7914 12.8721 126.1573 8.5022 131.535 8.5022 C 136.9127 8.5022 141.2737 12.8721 141.2737 18.2425 Z" fill="#1c2541"/>
		<path d="M 119.9633 195.9521 C 119.9633 202.1169 114.9606 207.1229 108.7909 207.1229 C 102.6211 207.1229 97.6217 202.1169 97.6217 195.9521 C 97.6217 189.7807 102.6211 184.778 108.7909 184.778 C 114.9606 184.778 119.9633 189.7807 119.9633 195.9521 Z" fill="#3a506b"/>
		<path d="M 238.6678 30.0202 C 238.6678 33.0485 236.2076 35.5111 233.1786 35.5111 C 230.1462 35.5111 227.6861 33.0485 227.6861 30.0202 C 227.6861 26.9919 230.1462 24.531 233.1786 24.531 C 236.2076 24.531 238.6678 26.9919 238.6678 30.0202 Z" fill="#dce0e4"/>
		<path d="M 281.8678 139.2202 C 281.8678 142.2485 279.4077 144.7111 276.3786 144.7111 C 273.3462 144.7111 270.886 142.2485 270.886 139.2202 C 270.886 136.192 273.3462 133.731 276.3786 133.731 C 279.4077 133.731 281.8678 136.192 281.8678 139.2202 Z" fill="#dce0e4"/>
		<path d="M 83.8678 30.0202 C 83.8678 33.0485 81.4076 35.5111 78.3786 35.5111 C 75.3462 35.5111 72.886 33.0485 72.886 30.0202 C 72.886 26.9919 75.3462 24.531 78.3786 24.531 C 81.4076 24.531 83.8678 26.9919 83.8678 30.0202 Z" fill="#dce0e4"/>
		<path d="M 61.3243 66.1689 C 61.3243 68.4068 59.5083 70.2244 57.2655 70.2244 C 55.0236 70.2244 53.206 68.4068 53.206 66.1689 C 53.206 63.927 55.0236 62.1102 57.2655 62.1102 C 59.5083 62.1102 61.3243 63.927 61.3243 66.1689 Z" fill="#3a506b"/>
		<path d="M 72.5015 185.8489 C 72.5015 187.9065 70.8367 189.5706 68.7807 189.5706 C 66.7165 189.5706 65.0533 187.9065 65.0533 185.8489 C 65.0533 183.7872 66.7165 182.1232 68.7807 182.1232 C 70.8367 182.1232 72.5015 183.7872 72.5015 185.8489 Z" fill="#dce0e4"/>
		<path d="M 260.476 26.1878 C 260.476 27.7347 259.2281 28.9817 257.6796 28.9817 C 256.1376 28.9817 254.8897 27.7347 254.8897 26.1878 C 254.8897 24.6474 256.1376 23.3874 257.6796 23.3874 C 259.2281 23.3874 260.476 24.6474 260.476 26.1878 Z" fill="#dce0e4"/>
		<path d="M 291.676 176.1878 C 291.676 177.7347 290.4281 178.9817 288.8796 178.9817 C 287.3376 178.9817 286.0898 177.7347 286.0898 176.1878 C 286.0898 174.6474 287.3376 173.3874 288.8796 173.3874 C 290.4281 173.3874 291.676 174.6474 291.676 176.1878 Z" fill="#dce0e4"/>
		<path d="M 32.476 11.7878 C 32.476 13.3347 31.2281 14.5817 29.6796 14.5817 C 28.1376 14.5817 26.8897 13.3347 26.8897 11.7878 C 26.8897 10.2474 28.1376 8.9874 29.6796 8.9874 C 31.2281 8.9874 32.476 10.2474 32.476 11.7878 Z" fill="#dce0e4"/>
		<path d="M 225.5738 200.6404 C 225.5738 204.6805 222.299 207.9505 218.2742 207.9505 C 214.2333 207.9505 210.9617 204.6805 210.9617 200.6404 C 210.9617 196.6067 214.2333 193.3352 218.2742 193.3352 C 222.299 193.3352 225.5738 196.6067 225.5738 200.6404 Z" fill="#dce0e4"/>
		<path d="M 268.3141 81.2465 C 268.3141 83.3042 266.646 84.9715 264.5899 84.9715 C 262.534 84.9715 260.8659 83.3042 260.8659 81.2465 C 260.8659 79.1889 262.534 77.5175 264.5899 77.5175 C 266.646 77.5175 268.3141 79.1889 268.3141 81.2465 Z" fill="#3a506b"/>
		<path d="M 127.9141 227.6465 C 127.9141 229.7042 126.246 231.3715 124.1899 231.3715 C 122.1339 231.3715 120.4659 229.7042 120.4659 227.6465 C 120.4659 225.5889 122.1339 223.9175 124.1899 223.9175 C 126.246 223.9175 127.9141 225.5889 127.9141 227.6465 Z" fill="#3a506b"/>
		<path d="M 168.1848 82.1892 C 151.0075 82.1892 137.0786 96.1216 137.0786 113.299 C 137.0786 130.4798 151.0075 144.4087 168.1848 144.4087 C 185.3692 144.4087 199.2981 130.4798 199.2981 113.299 C 199.2981 96.1216 185.3692 82.1892 168.1848 82.1892 ZM 168.1848 138.9208 C 154.045 138.9208 142.57 127.4458 142.57 113.299 C 142.57 99.1521 154.045 87.6771 168.1848 87.6771 C 182.3317 87.6771 193.8067 99.1521 193.8067 113.299 C 193.8067 127.4458 182.3317 138.9208 168.1848 138.9208 Z" fill="#3a506b"/>
		<path d="M 202.2794 143.7654 L 198.6512 147.3865 L 188.3012 137.0365 L 191.9223 133.4119 L 202.2794 143.7654 Z" fill="#3a506b"/>
		<path d="M 204.8669 141.1779 L 231.5223 167.8333 L 222.7192 176.6329 L 196.0637 149.974 L 204.8669 141.1779 Z" fill="#1c2541"/>
		<path d="M 231.5223 167.8333 C 233.9481 170.2591 233.9481 174.2037 231.5223 176.6329 C 229.0966 179.0622 225.152 179.0587 222.7192 176.6329 L 231.5223 167.8333 Z" fill="#3a506b"/>
		<path d="M 209.0083 145.3193 L 200.2052 154.1154 L 198.138 152.0447 L 206.9341 143.2451 L 209.0083 145.3193 Z" fill="#3a506b"/>
	</g>
</svg>